<svg xmlns="http://www.w3.org/2000/svg" width="1200" height="154" viewBox="0 0 1200 154" role="img" aria-labelledby="title desc">
  <title id="title">Secure channels</title><desc id="desc">A signal routing console with three available endpoints.</desc>
  <rect width="1200" height="154" rx="14" fill="#060606"/><rect x="1" y="1" width="1198" height="152" rx="13" fill="none" stroke="#303030"/>
  <g font-family="Consolas,monospace"><text x="34" y="42" fill="#d00000" font-size="9" letter-spacing="5">COMMUNICATION ARRAY // 0126</text><text x="34" y="82" fill="#eee" font-size="24" letter-spacing="7">SECURE CHANNELS</text><text x="34" y="111" fill="#666" font-size="10" letter-spacing="3">SELECT AN OPEN FREQUENCY</text></g>
  <g transform="translate(470 50)" fill="none"><path d="M0 31h30l12-18 16 43 18-34 13 9h36l10-24 17 49 18-39 13 14h37l9-17 13 31 13-14h34" stroke="#d00000" stroke-width="2"/><path d="M0 31h284" stroke="#333" stroke-dasharray="2 7"/></g>
  <g transform="translate(821 32)" font-family="Consolas,monospace"><text fill="#555" font-size="9" letter-spacing="3">ENDPOINT MATRIX</text><g transform="translate(0 34)"><circle cx="7" cy="7" r="5" fill="#d00000"/><path d="M18 7h52M70 7l32 31h60M70 7l32-31h60" fill="none" stroke="#383838"/><circle cx="166" cy="-24" r="5" fill="#d00000"/><circle cx="166" cy="38" r="5" fill="#d00000"/><circle cx="228" cy="7" r="5" fill="#d00000"/><path d="M102 7h126" stroke="#383838"/></g><text x="263" y="96" fill="#777" font-size="9" letter-spacing="2" text-anchor="end">03 ROUTES AVAILABLE</text></g>
  <path d="M34 132h1132" stroke="#1f1f1f"/><path d="M34 132h228" stroke="#d00000" opacity=".65"/>
</svg>
